<?xml version="1.0" encoding="UTF-8"?><svg id="Calque_1" xmlns="http://www.w3.org/2000/svg" xmlns:xlink="http://www.w3.org/1999/xlink" viewBox="0 0 181.01 181.01"><defs><linearGradient id="Dégradé_sans_nom_155" x1="126.65" y1="153.1" x2="54.36" y2="27.9" gradientUnits="userSpaceOnUse"><stop offset="0" stop-color="#fff" stop-opacity=".9"/><stop offset="1" stop-color="#fff" stop-opacity=".45"/></linearGradient><linearGradient id="Dégradé_sans_nom_146" x1="90.5" y1="150.81" x2="90.5" y2="30.2" gradientUnits="userSpaceOnUse"><stop offset="0" stop-color="#2b2b31"/><stop offset="1" stop-color="#fff" stop-opacity=".8"/></linearGradient></defs><g><g><path d="m91.46,150.81h-34.04c-9.91,0-18.98-5.58-23.46-14.43l-17.19-34.02c-3.77-7.45-3.77-16.25,0-23.7l17.19-34.02c4.47-8.85,13.54-14.43,23.46-14.43h34.04-1.91,34.04c9.91,0,18.98,5.58,23.46,14.43l17.19,34.02c3.77,7.45,3.77,16.25,0,23.7l-17.19,34.02c-4.47,8.85-13.54,14.43-23.46,14.43h-34.04,1.91Z" style="fill:url(#Dégradé_sans_nom_155);"/><path d="m123.59,32.12c9.24,0,17.58,5.13,21.74,13.38l17.19,34.02c3.48,6.88,3.48,15.1,0,21.98l-17.19,34.02c-4.17,8.25-12.5,13.38-21.74,13.38H57.42c-9.24,0-17.58-5.13-21.75-13.38l-17.19-34.02c-3.48-6.88-3.48-15.1,0-21.98l17.19-34.02c4.17-8.25,12.5-13.38,21.75-13.38h66.17m0-1.92h-34.04,1.91-34.04c-9.91,0-18.98,5.58-23.46,14.43l-17.19,34.02c-3.77,7.45-3.77,16.25,0,23.7l17.19,34.02c4.47,8.85,13.54,14.43,23.46,14.43h34.04-1.91,34.04c9.91,0,18.98-5.58,23.46-14.43l17.19-34.02c3.77-7.45,3.77-16.25,0-23.7l-17.19-34.02c-4.47-8.85-13.54-14.43-23.46-14.43h0Z" style="fill:url(#Dégradé_sans_nom_146);"/></g><rect x="91.46" y="89.55" width="36.7" height="1.91" rx=".96" ry=".96" style="fill:#2b2b31;"/><path d="m140.56,90.08l-16.71-33.07c-.16-.32-.49-.53-.85-.53H58.01c-.36,0-.69.2-.85.53l-16.71,33.07c-.14.27-.14.59,0,.86l16.71,33.06c.16.32.49.53.85.53h64.98c.36,0,.69-.2.85-.53l16.71-33.06c.14-.27.14-.59,0-.86Zm-2.15.86l-15.73,31.14c-.16.32-.49.53-.85.53h-62.63c-.36,0-.69-.2-.85-.53l-15.73-31.14c-.14-.27-.14-.59,0-.86l15.73-31.15c.16-.32.49-.53.85-.53h62.63c.36,0,.69.2.85.53l15.73,31.15c.14.27.14.59,0,.86Z" style="fill:#2b2b31;"/></g><path d="m386.41-29.28v416H-206.59V-29.28H386.41m1-1H-207.59v418H387.41V-30.28h0Z" style="fill:red;"/></svg>
