<?xml version="1.0" encoding="utf-8"?>
<!-- Generator: Adobe Illustrator 27.2.0, SVG Export Plug-In . SVG Version: 6.00 Build 0)  -->
<svg version="1.1" id="Calque_1" xmlns="http://www.w3.org/2000/svg" xmlns:xlink="http://www.w3.org/1999/xlink" x="0px" y="0px"
	 viewBox="0 0 516.9 155" style="enable-background:new 0 0 516.9 155;" xml:space="preserve">
<style type="text/css">
	.st0{fill:url(#SVGID_1_);}
	.st1{fill:url(#SVGID_00000052794037258504776160000000213032022548559780_);}
	.st2{fill:#2F2F34;}
</style>
<g id="textes">
	<g>
		<g>
			
				<linearGradient id="SVGID_1_" gradientUnits="userSpaceOnUse" x1="329.2971" y1="-42.25" x2="187.5829" y2="203.23" gradientTransform="matrix(1 0 0 -1 0 158)">
				<stop  offset="0" style="stop-color:#FFFFFF;stop-opacity:0.9"/>
				<stop  offset="1" style="stop-color:#FFFFFF;stop-opacity:0.45"/>
			</linearGradient>
			<path class="st0" d="M91.3,125.7H64.1c-7.9,0-15.2-4.5-18.7-11.5L31.6,87c-3-6-3-13,0-18.9l13.7-27.2
				c3.6-7.1,10.8-11.5,18.7-11.5h388.7c7.9,0,15.2,4.5,18.7,11.5L485.3,68c3,6,3,13,0,18.9l-13.7,27.2c-3.6,7.1-10.8,11.5-18.7,11.5
				H91.3z"/>
			
				<linearGradient id="SVGID_00000084503101853848301460000002137866363320548483_" gradientUnits="userSpaceOnUse" x1="258.44" y1="32.29" x2="258.44" y2="128.67" gradientTransform="matrix(1 0 0 -1 0 158)">
				<stop  offset="0" style="stop-color:#2F2F34"/>
				<stop  offset="1" style="stop-color:#FFFFFF;stop-opacity:0.8"/>
			</linearGradient>
			<path style="fill:url(#SVGID_00000084503101853848301460000002137866363320548483_);" d="M452.8,30.9c7.4,0,14,4.1,17.4,10.7
				l13.7,27.2c2.8,5.5,2.8,12.1,0,17.6l-13.7,27.2c-3.3,6.6-10,10.7-17.4,10.7H64.1c-7.4,0-14-4.1-17.4-10.7L33,86.3
				c-2.8-5.5-2.8-12.1,0-17.6l13.7-27.2c3.3-6.6,10-10.7,17.4-10.7L452.8,30.9 M452.8,29.3H64.1c-7.9,0-15.2,4.5-18.7,11.5L31.6,68
				c-3,6-3,13,0,18.9l13.7,27.2c3.6,7.1,10.8,11.5,18.7,11.5h388.7c7.9,0,15.2-4.5,18.7-11.5L485.3,87c3-6,3-13,0-18.9l-13.7-27.2
				C468,33.8,460.7,29.3,452.8,29.3C452.8,29.3,452.8,29.3,452.8,29.3z"/>
		</g>
		<g>
			<path class="st2" d="M182.5,77.1c2.4-1.1,4.3-2.8,5.7-5.1c1.4-2.3,2.1-4.8,2.1-7.6c0-2.3-0.5-4.7-1.5-6.8c-1-2.1-2.4-3.8-4.3-5.2
				c-1.9-1.3-4.1-2-6.6-2h-23.3c-0.4,0-0.8,0.3-0.8,0.8v52.8c0,0.4,0.3,0.8,0.8,0.8h24.4c2.5,0,4.8-0.7,6.8-1.9c2-1.3,3.7-3,4.9-5.2
				c1.2-2.1,1.8-4.5,1.8-7c0-3.1-0.9-5.7-2.7-8.3C188.1,79.7,185.6,78,182.5,77.1L182.5,77.1L182.5,77.1z M155.4,52.6
				c0-0.4,0.3-0.8,0.8-0.8h21.8c2.1,0,4,0.6,5.7,1.7c1.6,1.2,2.9,2.7,3.8,4.5s1.4,4.1,1.4,6.3c0,2-0.5,3.9-1.5,5.8s-2.3,3.4-4,4.7
				c-1.7,1.2-3.6,1.8-5.9,1.8h-22.1C155.4,76.7,155.4,52.6,155.4,52.6z M189.5,96.6c-1.1,1.9-2.5,3.5-4.3,4.7
				c-1.8,1.2-3.8,1.8-6.1,1.8h-22.9c-0.4,0-0.8-0.3-0.8-0.8V78.3h24.2c2.2,0,4.2,0.6,5.9,1.8c1.7,1.2,3.1,2.7,4.1,4.6
				s1.5,3.7,1.5,5.9S190.6,94.7,189.5,96.6L189.5,96.6z"/>
			<path class="st2" d="M283.3,74.6c1.2-2.4,1.8-5,1.8-7.8c0-2-0.4-4-1.1-6c-0.8-1.9-1.8-3.7-3.2-5.3c-1.4-1.6-3-2.8-4.8-3.8
				c-1.9-0.9-3.9-1.4-6.2-1.4h-21.4c-0.4,0-0.8,0.3-0.8,0.8v52.8c0,0.4,0.3,0.8,0.8,0.8l0,0c0.4,0,0.8-0.3,0.8-0.8V83.3h19.8
				c0.3,0,0.5,0.1,0.6,0.3l13.3,20.7c0.1,0.2,0.4,0.3,0.6,0.3h1.4l-13.8-21.4c2.8-0.2,5.2-1.1,7.2-2.7
				C280.5,79.1,282.1,77,283.3,74.6L283.3,74.6L283.3,74.6z M270.3,81.8h-21.1V52.6c0-0.4,0.3-0.8,0.8-0.8h19.8c2.5,0,4.9,0.7,7,2.1
				c2.1,1.4,3.8,3.2,5,5.5s1.8,4.7,1.8,7.3s-0.5,4.9-1.6,7.2c-1.1,2.3-2.6,4.2-4.6,5.6S273,81.8,270.3,81.8L270.3,81.8L270.3,81.8z"
				/>
			<path class="st2" d="M323.7,50.3L323.7,50.3c-0.4,0-0.8,0.3-0.8,0.8v52.8c0,0.4,0.3,0.8,0.8,0.8h34.1c0.4,0,0.8-0.3,0.8-0.8l0,0
				c0-0.4-0.3-0.8-0.8-0.8h-32.6c-0.4,0-0.8-0.3-0.8-0.8V51.1C324.5,50.7,324.1,50.3,323.7,50.3L323.7,50.3z"/>
			<path class="st2" d="M368,50.3L368,50.3c0.4,0,0.8,0.3,0.8,0.8v52.8c0,0.4-0.3,0.8-0.8,0.8h0c-0.4,0-0.8-0.3-0.8-0.8V51.1
				C367.3,50.7,367.6,50.3,368,50.3z"/>
			<path class="st2" d="M382.7,104.7L382.7,104.7c0.4,0,0.8-0.3,0.8-0.8V78.3h27.8c0.4,0,0.8-0.3,0.8-0.8l0,0c0-0.4-0.3-0.8-0.8-0.8
				h-27.8V52.6c0-0.4,0.3-0.8,0.8-0.8h31.9c0.4,0,0.8-0.3,0.8-0.8l0,0c0-0.4-0.3-0.8-0.8-0.8h-33.5c-0.4,0-0.8,0.3-0.8,0.8v52.8
				C382,104.4,382.3,104.7,382.7,104.7L382.7,104.7z"/>
			<path class="st2" d="M122.7,81.9l-20.8-31.2c-0.1-0.2-0.4-0.3-0.6-0.3h-1.3l21.9,33.1c0.1,0.1,0.1,0.3,0.1,0.4v20.1
				c0,0.4,0.3,0.8,0.8,0.8l0,0c0.4,0,0.8-0.3,0.8-0.8V83.9c0-0.2,0-0.3,0.1-0.4l21.9-33.1h-1.4c-0.3,0-0.5,0.1-0.6,0.3L122.7,81.9
				L122.7,81.9z"/>
			<path class="st2" d="M427.9,76.8h27.8c0.4,0,0.8,0.3,0.8,0.8v0c0,0.4-0.3,0.8-0.8,0.8h-27.8c-0.4,0-0.8-0.3-0.8-0.8v0
				C427.1,77.1,427.5,76.8,427.9,76.8z"/>
			<path class="st2" d="M209.1,76.8h27.8c0.4,0,0.8,0.3,0.8,0.8v0c0,0.4-0.3,0.8-0.8,0.8h-27.8c-0.4,0-0.8-0.3-0.8-0.8v0
				C208.4,77.1,208.7,76.8,209.1,76.8z"/>
			<path class="st2" d="M198.4,77.9l13.3,26.4c0.1,0.3,0.4,0.4,0.7,0.4h26c0.4,0,0.8-0.3,0.8-0.8l0,0c0-0.4-0.3-0.8-0.8-0.8h-25
				c-0.3,0-0.6-0.2-0.7-0.4l-12.6-24.9c-0.1-0.2-0.1-0.5,0-0.7l12.6-24.9c0.1-0.3,0.4-0.4,0.7-0.4h25c0.4,0,0.8-0.3,0.8-0.8l0,0
				c0-0.4-0.3-0.8-0.8-0.8h-26c-0.3,0-0.6,0.2-0.7,0.4l-13.3,26.4C198.3,77.4,198.3,77.6,198.4,77.9L198.4,77.9z"/>
			<path class="st2" d="M50.5,77.9l13.3,26.4c0.1,0.3,0.4,0.4,0.7,0.4h26c0.4,0,0.8-0.3,0.8-0.8l0,0c0-0.4-0.3-0.8-0.8-0.8h-25
				c-0.3,0-0.6-0.2-0.7-0.4L52.2,77.9c-0.1-0.2-0.1-0.5,0-0.7l12.6-24.9c0.1-0.3,0.4-0.4,0.7-0.4h25c0.4,0,0.8-0.3,0.8-0.8l0,0
				c0-0.4-0.3-0.8-0.8-0.8h-26c-0.3,0-0.5,0.2-0.7,0.4L50.5,77.2C50.4,77.4,50.4,77.7,50.5,77.9z"/>
			<path class="st2" d="M452.3,50.3h-26c-0.4,0-0.8,0.3-0.8,0.8l0,0c0,0.4,0.3,0.8,0.8,0.8h25c0.3,0,0.5,0.2,0.7,0.4l12.6,24.9
				c0.1,0.2,0.1,0.5,0,0.7l-12.6,24.9c-0.1,0.3-0.4,0.4-0.7,0.4h-25c-0.4,0-0.8,0.3-0.8,0.8l0,0c0,0.4,0.3,0.8,0.8,0.8h26
				c0.3,0,0.5-0.2,0.7-0.4l13.4-26.4c0.1-0.2,0.1-0.5,0-0.7L453,50.8C452.9,50.5,452.6,50.3,452.3,50.3z"/>
		</g>
	</g>
</g>
</svg>